<mxfile host="app.diagrams.net" modified="2023-08-20T14:50:08.279Z" agent="Mozilla/5.0 (Windows NT 10.0; Win64; x64) AppleWebKit/537.36 (KHTML, like Gecko) Chrome/115.0.0.0 Safari/537.36" version="21.6.8" etag="JEtZ1-DVQDBB01L1TX9I" type="github">
  <diagram name="第 1 页" id="v4hdZj6swpRE_gZ5NlcD">
    <mxGraphModel>
      <root>
        <mxCell id="0" />
        <mxCell id="1" parent="0" />
      </root>
    </mxGraphModel>
  </diagram>
</mxfile>
